<mxfile host="app.diagrams.net" modified="2023-09-03T11:32:17.678Z" agent="Mozilla/5.0 (Windows NT 10.0; Win64; x64) AppleWebKit/537.36 (KHTML, like Gecko) Chrome/116.0.0.0 Safari/537.36 Edg/116.0.1938.69" etag="7IKHGAhPXaLbyiV2j12j" version="21.7.1" type="github">
  <diagram name="第 1 页" id="f-w1hROpVEtGUasfpLYD">
    <mxGraphModel dx="1379" dy="751" grid="1" gridSize="10" guides="1" tooltips="1" connect="1" arrows="1" fold="1" page="1" pageScale="1" pageWidth="827" pageHeight="1169" math="0" shadow="0">
      <root>
        <mxCell id="0" />
        <mxCell id="1" parent="0" />
        <mxCell id="bqMFLUTR9exeXONZDB0y-15" style="edgeStyle=orthogonalEdgeStyle;rounded=0;orthogonalLoop=1;jettySize=auto;html=1;exitX=1;exitY=0.5;exitDx=0;exitDy=0;exitPerimeter=0;entryX=0;entryY=0.5;entryDx=0;entryDy=0;entryPerimeter=0;strokeColor=#00FF00;startArrow=classic;startFill=1;endArrow=none;endFill=0;" parent="1" source="bqMFLUTR9exeXONZDB0y-1" target="bqMFLUTR9exeXONZDB0y-2" edge="1">
          <mxGeometry relative="1" as="geometry" />
        </mxCell>
        <mxCell id="bqMFLUTR9exeXONZDB0y-16" value="空" style="edgeLabel;html=1;align=center;verticalAlign=middle;resizable=0;points=[];" parent="bqMFLUTR9exeXONZDB0y-15" vertex="1" connectable="0">
          <mxGeometry x="-0.2231" y="3" relative="1" as="geometry">
            <mxPoint y="1" as="offset" />
          </mxGeometry>
        </mxCell>
        <mxCell id="bqMFLUTR9exeXONZDB0y-20" style="edgeStyle=orthogonalEdgeStyle;rounded=0;orthogonalLoop=1;jettySize=auto;html=1;exitX=0.5;exitY=0;exitDx=0;exitDy=0;exitPerimeter=0;entryX=0.5;entryY=1;entryDx=0;entryDy=0;" parent="1" source="bqMFLUTR9exeXONZDB0y-1" target="bqMFLUTR9exeXONZDB0y-19" edge="1">
          <mxGeometry relative="1" as="geometry" />
        </mxCell>
        <mxCell id="bqMFLUTR9exeXONZDB0y-1" value="Queue1" style="shape=cylinder3;whiteSpace=wrap;html=1;boundedLbl=1;backgroundOutline=1;size=15;fillColor=#d5e8d4;strokeColor=#82b366;" parent="1" vertex="1">
          <mxGeometry x="168.5" y="505" width="60" height="85" as="geometry" />
        </mxCell>
        <mxCell id="bqMFLUTR9exeXONZDB0y-17" style="edgeStyle=orthogonalEdgeStyle;rounded=0;orthogonalLoop=1;jettySize=auto;html=1;exitX=1;exitY=0.5;exitDx=0;exitDy=0;exitPerimeter=0;entryX=0;entryY=0.5;entryDx=0;entryDy=0;entryPerimeter=0;strokeColor=#66FF66;endArrow=none;endFill=0;startArrow=classic;startFill=1;" parent="1" source="bqMFLUTR9exeXONZDB0y-2" target="bqMFLUTR9exeXONZDB0y-3" edge="1">
          <mxGeometry relative="1" as="geometry" />
        </mxCell>
        <mxCell id="bqMFLUTR9exeXONZDB0y-18" value="空" style="edgeLabel;html=1;align=center;verticalAlign=middle;resizable=0;points=[];" parent="bqMFLUTR9exeXONZDB0y-17" vertex="1" connectable="0">
          <mxGeometry x="-0.2" y="3" relative="1" as="geometry">
            <mxPoint y="1" as="offset" />
          </mxGeometry>
        </mxCell>
        <mxCell id="bqMFLUTR9exeXONZDB0y-2" value="Queue2" style="shape=cylinder3;whiteSpace=wrap;html=1;boundedLbl=1;backgroundOutline=1;size=15;fillColor=#ffe6cc;strokeColor=#d79b00;" parent="1" vertex="1">
          <mxGeometry x="289" y="505" width="60" height="85" as="geometry" />
        </mxCell>
        <mxCell id="bqMFLUTR9exeXONZDB0y-3" value="Queue3" style="shape=cylinder3;whiteSpace=wrap;html=1;boundedLbl=1;backgroundOutline=1;size=15;fillColor=#f8cecc;strokeColor=#b85450;" parent="1" vertex="1">
          <mxGeometry x="399" y="505" width="60" height="85" as="geometry" />
        </mxCell>
        <mxCell id="bqMFLUTR9exeXONZDB0y-8" style="edgeStyle=orthogonalEdgeStyle;rounded=0;orthogonalLoop=1;jettySize=auto;html=1;exitX=0.5;exitY=0;exitDx=0;exitDy=0;entryX=0.5;entryY=1;entryDx=0;entryDy=0;" parent="1" source="bqMFLUTR9exeXONZDB0y-4" target="bqMFLUTR9exeXONZDB0y-7" edge="1">
          <mxGeometry relative="1" as="geometry" />
        </mxCell>
        <mxCell id="bqMFLUTR9exeXONZDB0y-4" value="重置QoS" style="rounded=1;whiteSpace=wrap;html=1;" parent="1" vertex="1">
          <mxGeometry x="259" y="710" width="120" height="60" as="geometry" />
        </mxCell>
        <mxCell id="bqMFLUTR9exeXONZDB0y-6" style="edgeStyle=orthogonalEdgeStyle;rounded=0;orthogonalLoop=1;jettySize=auto;html=1;exitX=0.5;exitY=0;exitDx=0;exitDy=0;entryX=0.5;entryY=1;entryDx=0;entryDy=0;" parent="1" source="bqMFLUTR9exeXONZDB0y-5" target="bqMFLUTR9exeXONZDB0y-4" edge="1">
          <mxGeometry relative="1" as="geometry" />
        </mxCell>
        <mxCell id="bqMFLUTR9exeXONZDB0y-5" value="开始" style="ellipse;whiteSpace=wrap;html=1;aspect=fixed;" parent="1" vertex="1">
          <mxGeometry x="289" y="800" width="60" height="60" as="geometry" />
        </mxCell>
        <mxCell id="bqMFLUTR9exeXONZDB0y-9" style="edgeStyle=orthogonalEdgeStyle;rounded=0;orthogonalLoop=1;jettySize=auto;html=1;exitX=0;exitY=0.5;exitDx=0;exitDy=0;entryX=0.5;entryY=1;entryDx=0;entryDy=0;entryPerimeter=0;" parent="1" source="bqMFLUTR9exeXONZDB0y-7" target="bqMFLUTR9exeXONZDB0y-1" edge="1">
          <mxGeometry relative="1" as="geometry" />
        </mxCell>
        <mxCell id="bqMFLUTR9exeXONZDB0y-10" value="无限制" style="edgeLabel;html=1;align=center;verticalAlign=middle;resizable=0;points=[];" parent="bqMFLUTR9exeXONZDB0y-9" vertex="1" connectable="0">
          <mxGeometry x="0.2" y="1" relative="1" as="geometry">
            <mxPoint x="1" as="offset" />
          </mxGeometry>
        </mxCell>
        <mxCell id="bqMFLUTR9exeXONZDB0y-11" style="edgeStyle=orthogonalEdgeStyle;rounded=0;orthogonalLoop=1;jettySize=auto;html=1;exitX=0.5;exitY=0;exitDx=0;exitDy=0;entryX=0.5;entryY=1;entryDx=0;entryDy=0;entryPerimeter=0;" parent="1" source="bqMFLUTR9exeXONZDB0y-7" target="bqMFLUTR9exeXONZDB0y-2" edge="1">
          <mxGeometry relative="1" as="geometry" />
        </mxCell>
        <mxCell id="bqMFLUTR9exeXONZDB0y-12" value="中级限制" style="edgeLabel;html=1;align=center;verticalAlign=middle;resizable=0;points=[];" parent="bqMFLUTR9exeXONZDB0y-11" vertex="1" connectable="0">
          <mxGeometry x="-0.3" y="-1" relative="1" as="geometry">
            <mxPoint as="offset" />
          </mxGeometry>
        </mxCell>
        <mxCell id="bqMFLUTR9exeXONZDB0y-13" style="edgeStyle=orthogonalEdgeStyle;rounded=0;orthogonalLoop=1;jettySize=auto;html=1;exitX=1;exitY=0.5;exitDx=0;exitDy=0;entryX=0.5;entryY=1;entryDx=0;entryDy=0;entryPerimeter=0;" parent="1" source="bqMFLUTR9exeXONZDB0y-7" target="bqMFLUTR9exeXONZDB0y-3" edge="1">
          <mxGeometry relative="1" as="geometry">
            <Array as="points">
              <mxPoint x="429" y="660" />
            </Array>
          </mxGeometry>
        </mxCell>
        <mxCell id="bqMFLUTR9exeXONZDB0y-14" value="高限制" style="edgeLabel;html=1;align=center;verticalAlign=middle;resizable=0;points=[];" parent="bqMFLUTR9exeXONZDB0y-13" vertex="1" connectable="0">
          <mxGeometry x="0.0838" relative="1" as="geometry">
            <mxPoint y="1" as="offset" />
          </mxGeometry>
        </mxCell>
        <mxCell id="bqMFLUTR9exeXONZDB0y-7" value="" style="rhombus;whiteSpace=wrap;html=1;" parent="1" vertex="1">
          <mxGeometry x="228.5" y="630" width="181" height="60" as="geometry" />
        </mxCell>
        <mxCell id="bqMFLUTR9exeXONZDB0y-19" value="转发" style="ellipse;whiteSpace=wrap;html=1;aspect=fixed;" parent="1" vertex="1">
          <mxGeometry x="289" y="390" width="60" height="60" as="geometry" />
        </mxCell>
        <mxCell id="2QFxVZ22sSBd_UBzq-27-1" value="&lt;span style=&quot;color: rgb(0, 0, 0); font-family: Helvetica; font-size: 12px; font-style: normal; font-variant-ligatures: normal; font-variant-caps: normal; font-weight: 400; letter-spacing: normal; orphans: 2; text-indent: 0px; text-transform: none; widows: 2; word-spacing: 0px; -webkit-text-stroke-width: 0px; background-color: rgb(251, 251, 251); text-decoration-thickness: initial; text-decoration-style: initial; text-decoration-color: initial; float: none; display: inline !important;&quot;&gt;根据异常流规则&lt;/span&gt;&lt;br style=&quot;border-color: var(--border-color); color: rgb(0, 0, 0); font-family: Helvetica; font-size: 12px; font-style: normal; font-variant-ligatures: normal; font-variant-caps: normal; font-weight: 400; letter-spacing: normal; orphans: 2; text-indent: 0px; text-transform: none; widows: 2; word-spacing: 0px; -webkit-text-stroke-width: 0px; background-color: rgb(251, 251, 251); text-decoration-thickness: initial; text-decoration-style: initial; text-decoration-color: initial;&quot;&gt;&lt;span style=&quot;color: rgb(0, 0, 0); font-family: Helvetica; font-size: 12px; font-style: normal; font-variant-ligatures: normal; font-variant-caps: normal; font-weight: 400; letter-spacing: normal; orphans: 2; text-indent: 0px; text-transform: none; widows: 2; word-spacing: 0px; -webkit-text-stroke-width: 0px; background-color: rgb(251, 251, 251); text-decoration-thickness: initial; text-decoration-style: initial; text-decoration-color: initial; float: none; display: inline !important;&quot;&gt;设置包QoS&lt;/span&gt;" style="text;whiteSpace=wrap;html=1;align=center;" vertex="1" parent="1">
          <mxGeometry x="259" y="640" width="120" height="50" as="geometry" />
        </mxCell>
      </root>
    </mxGraphModel>
  </diagram>
</mxfile>
